<mxfile host="app.diagrams.net" modified="2024-04-02T06:49:46.614Z" agent="Mozilla/5.0 (Windows NT 10.0; Win64; x64) AppleWebKit/537.36 (KHTML, like Gecko) Chrome/123.0.0.0 Safari/537.36" etag="oJ81EeTwCrmmwyt-jWqb" version="24.0.7" type="device">
  <diagram name="페이지-1" id="hC-acC57TQcahpKOU4Xh">
    <mxGraphModel dx="2328" dy="1051" grid="1" gridSize="10" guides="1" tooltips="1" connect="1" arrows="1" fold="1" page="1" pageScale="1" pageWidth="827" pageHeight="1169" math="0" shadow="0">
      <root>
        <mxCell id="0" />
        <mxCell id="1" parent="0" />
        <mxCell id="Ikt8q4Z6_RrET4Gfh8_O-19" style="rounded=0;orthogonalLoop=1;jettySize=auto;html=1;" edge="1" parent="1" source="Ikt8q4Z6_RrET4Gfh8_O-1" target="Ikt8q4Z6_RrET4Gfh8_O-3">
          <mxGeometry relative="1" as="geometry" />
        </mxCell>
        <mxCell id="Ikt8q4Z6_RrET4Gfh8_O-20" style="rounded=0;orthogonalLoop=1;jettySize=auto;html=1;" edge="1" parent="1" source="Ikt8q4Z6_RrET4Gfh8_O-1" target="Ikt8q4Z6_RrET4Gfh8_O-4">
          <mxGeometry relative="1" as="geometry" />
        </mxCell>
        <mxCell id="Ikt8q4Z6_RrET4Gfh8_O-21" style="rounded=0;orthogonalLoop=1;jettySize=auto;html=1;entryX=0.5;entryY=0;entryDx=0;entryDy=0;" edge="1" parent="1" source="Ikt8q4Z6_RrET4Gfh8_O-1" target="Ikt8q4Z6_RrET4Gfh8_O-5">
          <mxGeometry relative="1" as="geometry" />
        </mxCell>
        <mxCell id="Ikt8q4Z6_RrET4Gfh8_O-22" style="rounded=0;orthogonalLoop=1;jettySize=auto;html=1;" edge="1" parent="1" source="Ikt8q4Z6_RrET4Gfh8_O-1" target="Ikt8q4Z6_RrET4Gfh8_O-6">
          <mxGeometry relative="1" as="geometry" />
        </mxCell>
        <mxCell id="Ikt8q4Z6_RrET4Gfh8_O-23" style="rounded=0;orthogonalLoop=1;jettySize=auto;html=1;" edge="1" parent="1" source="Ikt8q4Z6_RrET4Gfh8_O-1" target="Ikt8q4Z6_RrET4Gfh8_O-7">
          <mxGeometry relative="1" as="geometry" />
        </mxCell>
        <mxCell id="Ikt8q4Z6_RrET4Gfh8_O-24" style="rounded=0;orthogonalLoop=1;jettySize=auto;html=1;" edge="1" parent="1" source="Ikt8q4Z6_RrET4Gfh8_O-1" target="Ikt8q4Z6_RrET4Gfh8_O-15">
          <mxGeometry relative="1" as="geometry" />
        </mxCell>
        <mxCell id="Ikt8q4Z6_RrET4Gfh8_O-1" value="유저" style="whiteSpace=wrap;html=1;align=center;" vertex="1" parent="1">
          <mxGeometry x="-980" y="440" width="100" height="40" as="geometry" />
        </mxCell>
        <mxCell id="Ikt8q4Z6_RrET4Gfh8_O-2" value="Entity" style="whiteSpace=wrap;html=1;align=center;" vertex="1" parent="1">
          <mxGeometry x="280" y="190" width="100" height="40" as="geometry" />
        </mxCell>
        <mxCell id="Ikt8q4Z6_RrET4Gfh8_O-3" value="회원번호" style="ellipse;whiteSpace=wrap;html=1;align=center;fontStyle=4;" vertex="1" parent="1">
          <mxGeometry x="-1270" y="530" width="100" height="40" as="geometry" />
        </mxCell>
        <mxCell id="Ikt8q4Z6_RrET4Gfh8_O-4" value="아이디" style="ellipse;whiteSpace=wrap;html=1;align=center;" vertex="1" parent="1">
          <mxGeometry x="-1150" y="530" width="100" height="40" as="geometry" />
        </mxCell>
        <mxCell id="Ikt8q4Z6_RrET4Gfh8_O-5" value="비밀번호" style="ellipse;whiteSpace=wrap;html=1;align=center;" vertex="1" parent="1">
          <mxGeometry x="-1040" y="530" width="100" height="40" as="geometry" />
        </mxCell>
        <mxCell id="Ikt8q4Z6_RrET4Gfh8_O-6" value="이름" style="ellipse;whiteSpace=wrap;html=1;align=center;" vertex="1" parent="1">
          <mxGeometry x="-930" y="530" width="100" height="40" as="geometry" />
        </mxCell>
        <mxCell id="Ikt8q4Z6_RrET4Gfh8_O-7" value="전화번호" style="ellipse;whiteSpace=wrap;html=1;align=center;" vertex="1" parent="1">
          <mxGeometry x="-820" y="530" width="100" height="40" as="geometry" />
        </mxCell>
        <mxCell id="Ikt8q4Z6_RrET4Gfh8_O-27" style="rounded=0;orthogonalLoop=1;jettySize=auto;html=1;entryX=0.5;entryY=0;entryDx=0;entryDy=0;" edge="1" parent="1" source="Ikt8q4Z6_RrET4Gfh8_O-8" target="Ikt8q4Z6_RrET4Gfh8_O-9">
          <mxGeometry relative="1" as="geometry" />
        </mxCell>
        <mxCell id="Ikt8q4Z6_RrET4Gfh8_O-28" style="rounded=0;orthogonalLoop=1;jettySize=auto;html=1;" edge="1" parent="1" source="Ikt8q4Z6_RrET4Gfh8_O-8" target="Ikt8q4Z6_RrET4Gfh8_O-11">
          <mxGeometry relative="1" as="geometry" />
        </mxCell>
        <mxCell id="Ikt8q4Z6_RrET4Gfh8_O-29" style="rounded=0;orthogonalLoop=1;jettySize=auto;html=1;" edge="1" parent="1" source="Ikt8q4Z6_RrET4Gfh8_O-8" target="Ikt8q4Z6_RrET4Gfh8_O-12">
          <mxGeometry relative="1" as="geometry" />
        </mxCell>
        <mxCell id="Ikt8q4Z6_RrET4Gfh8_O-30" style="rounded=0;orthogonalLoop=1;jettySize=auto;html=1;" edge="1" parent="1" source="Ikt8q4Z6_RrET4Gfh8_O-8" target="Ikt8q4Z6_RrET4Gfh8_O-13">
          <mxGeometry relative="1" as="geometry" />
        </mxCell>
        <mxCell id="Ikt8q4Z6_RrET4Gfh8_O-31" style="rounded=0;orthogonalLoop=1;jettySize=auto;html=1;" edge="1" parent="1" source="Ikt8q4Z6_RrET4Gfh8_O-8" target="Ikt8q4Z6_RrET4Gfh8_O-14">
          <mxGeometry relative="1" as="geometry" />
        </mxCell>
        <mxCell id="Ikt8q4Z6_RrET4Gfh8_O-32" style="rounded=0;orthogonalLoop=1;jettySize=auto;html=1;" edge="1" parent="1" source="Ikt8q4Z6_RrET4Gfh8_O-8" target="Ikt8q4Z6_RrET4Gfh8_O-17">
          <mxGeometry relative="1" as="geometry" />
        </mxCell>
        <mxCell id="Ikt8q4Z6_RrET4Gfh8_O-8" value="관리자" style="whiteSpace=wrap;html=1;align=center;" vertex="1" parent="1">
          <mxGeometry x="-200" y="440" width="100" height="40" as="geometry" />
        </mxCell>
        <mxCell id="Ikt8q4Z6_RrET4Gfh8_O-9" value="관리자번호" style="ellipse;whiteSpace=wrap;html=1;align=center;fontStyle=4;" vertex="1" parent="1">
          <mxGeometry x="-505" y="530" width="100" height="40" as="geometry" />
        </mxCell>
        <mxCell id="Ikt8q4Z6_RrET4Gfh8_O-11" value="아이디" style="ellipse;whiteSpace=wrap;html=1;align=center;" vertex="1" parent="1">
          <mxGeometry x="-390" y="530" width="100" height="40" as="geometry" />
        </mxCell>
        <mxCell id="Ikt8q4Z6_RrET4Gfh8_O-12" value="비밀번호" style="ellipse;whiteSpace=wrap;html=1;align=center;" vertex="1" parent="1">
          <mxGeometry x="-275" y="530" width="100" height="40" as="geometry" />
        </mxCell>
        <mxCell id="Ikt8q4Z6_RrET4Gfh8_O-13" value="이름" style="ellipse;whiteSpace=wrap;html=1;align=center;" vertex="1" parent="1">
          <mxGeometry x="-165" y="530" width="100" height="40" as="geometry" />
        </mxCell>
        <mxCell id="Ikt8q4Z6_RrET4Gfh8_O-14" value="전화번호" style="ellipse;whiteSpace=wrap;html=1;align=center;" vertex="1" parent="1">
          <mxGeometry x="-55" y="530" width="100" height="40" as="geometry" />
        </mxCell>
        <mxCell id="Ikt8q4Z6_RrET4Gfh8_O-15" value="역할" style="ellipse;whiteSpace=wrap;html=1;align=center;" vertex="1" parent="1">
          <mxGeometry x="-710" y="530" width="100" height="40" as="geometry" />
        </mxCell>
        <mxCell id="Ikt8q4Z6_RrET4Gfh8_O-16" value="공지사항" style="whiteSpace=wrap;html=1;align=center;" vertex="1" parent="1">
          <mxGeometry x="420" y="440" width="100" height="40" as="geometry" />
        </mxCell>
        <mxCell id="Ikt8q4Z6_RrET4Gfh8_O-17" value="역할" style="ellipse;whiteSpace=wrap;html=1;align=center;" vertex="1" parent="1">
          <mxGeometry x="60" y="530" width="100" height="40" as="geometry" />
        </mxCell>
        <mxCell id="Ikt8q4Z6_RrET4Gfh8_O-18" value="수강신청" style="shape=rhombus;perimeter=rhombusPerimeter;whiteSpace=wrap;html=1;align=center;" vertex="1" parent="1">
          <mxGeometry x="-600" y="290" width="120" height="60" as="geometry" />
        </mxCell>
        <mxCell id="Ikt8q4Z6_RrET4Gfh8_O-25" value="" style="fontSize=12;html=1;endArrow=ERzeroToMany;startArrow=ERmandOne;rounded=0;exitX=0.5;exitY=0;exitDx=0;exitDy=0;entryX=0;entryY=0.5;entryDx=0;entryDy=0;" edge="1" parent="1" source="Ikt8q4Z6_RrET4Gfh8_O-1" target="Ikt8q4Z6_RrET4Gfh8_O-18">
          <mxGeometry width="100" height="100" relative="1" as="geometry">
            <mxPoint x="-680" y="260" as="sourcePoint" />
            <mxPoint x="-1010" y="380" as="targetPoint" />
          </mxGeometry>
        </mxCell>
        <mxCell id="Ikt8q4Z6_RrET4Gfh8_O-26" value="" style="fontSize=12;html=1;endArrow=ERzeroToMany;startArrow=ERmandOne;rounded=0;exitX=0.5;exitY=0;exitDx=0;exitDy=0;entryX=1;entryY=0.5;entryDx=0;entryDy=0;" edge="1" parent="1" source="Ikt8q4Z6_RrET4Gfh8_O-8" target="Ikt8q4Z6_RrET4Gfh8_O-18">
          <mxGeometry width="100" height="100" relative="1" as="geometry">
            <mxPoint x="-85" y="180" as="sourcePoint" />
            <mxPoint x="-190" y="250" as="targetPoint" />
          </mxGeometry>
        </mxCell>
        <mxCell id="Ikt8q4Z6_RrET4Gfh8_O-33" value="제목" style="ellipse;whiteSpace=wrap;html=1;align=center;" vertex="1" parent="1">
          <mxGeometry x="303" y="530" width="100" height="40" as="geometry" />
        </mxCell>
        <mxCell id="Ikt8q4Z6_RrET4Gfh8_O-34" value="게시물번호" style="ellipse;whiteSpace=wrap;html=1;align=center;fontStyle=4;" vertex="1" parent="1">
          <mxGeometry x="195" y="530" width="100" height="40" as="geometry" />
        </mxCell>
        <mxCell id="Ikt8q4Z6_RrET4Gfh8_O-35" value="내용" style="ellipse;whiteSpace=wrap;html=1;align=center;" vertex="1" parent="1">
          <mxGeometry x="410" y="530" width="100" height="40" as="geometry" />
        </mxCell>
        <mxCell id="Ikt8q4Z6_RrET4Gfh8_O-37" value="관리자번호" style="ellipse;whiteSpace=wrap;html=1;align=center;" vertex="1" parent="1">
          <mxGeometry x="525" y="530" width="100" height="40" as="geometry" />
        </mxCell>
        <mxCell id="Ikt8q4Z6_RrET4Gfh8_O-38" value="회원번호" style="ellipse;whiteSpace=wrap;html=1;align=center;" vertex="1" parent="1">
          <mxGeometry x="645" y="530" width="100" height="40" as="geometry" />
        </mxCell>
      </root>
    </mxGraphModel>
  </diagram>
</mxfile>
